<?xml version="1.0" encoding="utf-8"?>
<!-- Generator: Adobe Illustrator 19.2.0, SVG Export Plug-In . SVG Version: 6.00 Build 0)  -->
<svg version="1.1" id="Layer_1" xmlns="http://www.w3.org/2000/svg" xmlns:xlink="http://www.w3.org/1999/xlink" x="0px" y="0px"  width="68px" height="82px" 
	 viewBox="0 0 80 80" style="enable-background:new 0 0 80 80;" xml:space="preserve">
<style type="text/css">
	.st0{fill:#ce9b86;}
</style>
<g>
	<path class="st0" d="M40,10.4c-11.9,0-21.6,9.7-21.6,21.7c0,3.3,0.6,6.3,1.8,8.8c5.5,12,15.6,24.6,18.6,28.1l1.2,1.4l1.1-1.4
		c8.9-11,15-20.2,18.6-28.1c1.3-2.8,1.9-5.7,1.9-8.8C61.7,20.1,52,10.4,40,10.4z M57,39.7L57,39.7c-3.3,7.2-9,16-17.1,26.1
		C36.1,61,27.7,50.1,23,39.7c-1-2.1-1.6-4.7-1.6-7.6c0-10.3,8.3-18.7,18.6-18.7c10.3,0,18.7,8.4,18.7,18.7
		C58.7,34.8,58.2,37.2,57,39.7z"/>
	<path class="st0" d="M40,22.3c-5.4,0-9.7,4.4-9.7,9.7s4.4,9.7,9.7,9.7s9.7-4.4,9.7-9.7S45.4,22.3,40,22.3z"/>
</g>
</svg>
