<?xml version="1.0" encoding="utf-8"?>
<!-- Generator: Adobe Illustrator 19.2.0, SVG Export Plug-In . SVG Version: 6.00 Build 0)  -->
<svg version="1.1" id="Layer_1" xmlns="http://www.w3.org/2000/svg" xmlns:xlink="http://www.w3.org/1999/xlink" x="0px" y="0px"
	 viewBox="0 0 90 150" style="enable-background:new 0 0 90 150;" xml:space="preserve">
<style type="text/css">
	.st0{fill-rule:evenodd;clip-rule:evenodd;fill:#6D6E71;}
	.st1{fill:#6D6E71;}
	.st2{fill:#FFFFFF;}
</style>
<g>
	<polygon class="st1" points="8.9,10.5 8.9,125.3 8.9,126.3 8.9,140.5 80.8,140.5 80.8,126.3 80.8,125.3 80.8,10.5 	"/>
	<rect x="10.9" y="126.5" class="st2" width="68" height="12"/>
	<rect x="10.9" y="12.5" class="st2" width="67.9" height="111.8"/>
	<path class="st1" d="M57.1,37.6h-39v7.5h37.4c0,0,6.6,0.3,6.9,7c0.3,5.8-7,8.1-7,8.1L44,64.6l16.4,26.5h10.9L57.5,68.9
		c0,0,15.3-3.9,14.3-17.1C70.7,37.8,57.1,37.6,57.1,37.6z"/>
	<polygon class="st1" points="45.2,56.8 45.2,49.3 18.4,49.3 18.4,91 45.2,91 45.2,83.4 27.4,83.4 27.4,73.3 41.8,73.3 41.8,65.7 
		27.3,65.7 27.3,56.8 	"/>
	<path class="st1" d="M21.4,117c-1.4,0-2.3-1.1-2.3-3.5c0-2.4,1-3.5,2.2-3.5c1.3,0,1.8,0.7,2.1,1.9l0.9-0.3
		c-0.4-1.5-1.3-2.4-2.8-2.4c-2,0-3.2,1.6-3.2,4.3c0,2.9,1.3,4.3,3.2,4.3c1.7,0,2.6-1.1,2.9-2.6l-0.8-0.2C23.2,116,22.7,117,21.4,117
		z"/>
	<path class="st1" d="M27.8,117c-1,0-1.8-0.9-1.8-2.2H30v-0.6c0-1.9-1-2.7-2.3-2.7c-1.5,0-2.5,1.2-2.5,3.1c0,2.2,1.3,3.1,2.6,3.1
		c1.4,0,1.9-0.7,2.3-1.4l-0.6-0.3C29.1,116.6,28.6,117,27.8,117z M27.7,112.2c0.9,0,1.4,0.7,1.4,1.9h-3.1
		C26.1,113,26.7,112.2,27.7,112.2z"/>
	<path class="st1" d="M32.2,112.8L32.2,112.8l0-1.2h-0.8v6h0.8v-3.3c0.4-1.2,0.9-1.9,2-1.9v-0.8C33.2,111.5,32.7,112,32.2,112.8z"/>
	<path class="st1" d="M36.4,116.6v-4.3h1.4v-0.7h-1.4v-2h-0.8v2h-1v0.7h1v4.4c0,0.8,0.4,1,1.3,1c0.5,0,0.8,0,1-0.1V117
		c-0.2,0-0.5,0.1-0.7,0.1C36.6,117,36.4,116.9,36.4,116.6z"/>
	<rect x="39.4" y="109.2" class="st1" width="0.8" height="1"/>
	<rect x="39.4" y="111.6" class="st1" width="0.8" height="6"/>
	<path class="st1" d="M42.8,110.9v0.7h-1v0.7h1v5.3h0.8v-5.3h1.3v-0.7h-1.3v-0.9c0-0.7,0.2-0.9,0.8-0.9c0.2,0,0.4,0.1,0.6,0.1v-0.7
		c-0.2,0-0.5-0.1-0.7-0.1C43.3,109.2,42.8,109.5,42.8,110.9z"/>
	<rect x="46.5" y="109.2" class="st1" width="0.8" height="1"/>
	<rect x="46.5" y="111.6" class="st1" width="0.8" height="6"/>
	<path class="st1" d="M51.5,117c-1,0-1.6-0.9-1.6-2.4c0-1.5,0.6-2.4,1.6-2.4c0.7,0,1.2,0.5,1.4,1.2l0.8-0.3c-0.4-0.9-1-1.6-2.2-1.6
		c-1.5,0-2.5,1.2-2.5,3.1c0,1.9,1,3.1,2.5,3.1c1.2,0,1.7-0.5,2.3-1.5l-0.7-0.3C52.7,116.8,52.2,117,51.5,117z"/>
	<path class="st1" d="M59.3,113.3c0-1.3-1.1-1.8-2.1-1.8c-1.1,0-1.9,0.6-2.3,1.3l0.7,0.4c0.2-0.4,0.6-0.9,1.5-0.9
		c0.7,0,1.2,0.3,1.2,1.1v0.3c-2.7,0.5-3.7,1.1-3.7,2.5c0,1.1,0.8,1.7,1.7,1.7c0.9,0,1.6-0.5,2-1l0.1,0.8h0.9
		c-0.1-0.3-0.1-0.6-0.1-1.3V113.3z M58.5,116c-0.5,0.6-1.3,1-1.9,1c-0.5,0-1-0.4-1-0.9c0-0.8,0.9-1.4,2.9-1.7V116z"/>
	<path class="st1" d="M65.6,116.3v-7h-0.8v2.9l0,0c-0.5-0.4-1-0.7-1.6-0.7c-1,0-2.4,0.8-2.4,3.1c0,2.4,1.4,3.1,2.5,3.1
		c0.7,0,1.3-0.3,1.6-0.7l0.1,0.6h0.8C65.5,117.2,65.6,116.8,65.6,116.3z M64.7,116.2c-0.6,0.6-1,0.8-1.5,0.8c-1,0-1.7-0.8-1.7-2.4
		c0-1.8,0.7-2.5,1.7-2.5c0.5,0,1.1,0.3,1.5,0.8V116.2z"/>
	<path class="st1" d="M71.6,113.3c0-1.3-1.1-1.8-2.1-1.8c-1.1,0-1.9,0.6-2.3,1.3l0.7,0.4c0.2-0.4,0.6-0.9,1.5-0.9
		c0.7,0,1.2,0.3,1.2,1.1v0.3c-2.7,0.5-3.7,1.1-3.7,2.5c0,1.1,0.8,1.7,1.7,1.7c0.9,0,1.6-0.5,2-1l0.1,0.8h0.9
		c-0.1-0.3-0.1-0.6-0.1-1.3V113.3z M70.7,116c-0.5,0.6-1.3,1-1.9,1c-0.5,0-1-0.4-1-0.9c0-0.8,0.9-1.4,2.9-1.7V116z"/>
	<polygon class="st1" points="23.9,99.1 23.9,98.3 18.9,98.3 18.9,106.7 24.2,106.7 24.2,105.9 19.8,105.9 19.8,102.7 22.7,102.7 
		22.7,101.9 19.8,101.9 19.8,99.1 	"/>
	<path class="st1" d="M33.4,106.7v-4.3c0-1.5-0.9-1.8-1.7-1.8c-0.7,0-1.4,0.4-1.9,1c-0.2-0.6-0.8-1-1.5-1c-0.6,0-1.2,0.3-1.8,0.9
		l0,0v-0.8h-0.8v6h0.8v-4.5c0.5-0.4,0.9-0.9,1.7-0.9c0.5,0,0.9,0.3,0.9,1.1v4.3H30v-4.5c0.5-0.4,0.9-0.9,1.7-0.9
		c0.5,0,0.9,0.3,0.9,1.1v4.3H33.4z"/>
	<path class="st1" d="M37.8,100.5c-0.6,0-1.3,0.4-1.6,0.8h0v-0.7h-0.8v8.3h0.8v-2.8l0,0c0.5,0.4,1,0.7,1.6,0.7c1,0,2.4-0.8,2.4-3.1
		C40.3,101.3,38.9,100.5,37.8,100.5z M37.8,106.1c-0.5,0-1.1-0.3-1.5-0.8v-3.2c0.6-0.6,1-0.8,1.5-0.8c1,0,1.7,0.8,1.7,2.4
		C39.5,105.4,38.7,106.1,37.8,106.1z"/>
	<path class="st1" d="M42.5,103.3c0.4-1.2,0.9-1.9,2-1.9v-0.8c-1,0-1.5,0.5-2,1.3h0v-1.2h-0.8v6h0.8V103.3z"/>
	<path class="st1" d="M50.1,105.4l-0.6-0.3c-0.3,0.6-0.9,1-1.7,1c-1,0-1.8-0.9-1.8-2.2h3.9v-0.6c0-1.9-1-2.7-2.3-2.7
		c-1.5,0-2.5,1.2-2.5,3.1c0,2.2,1.3,3.1,2.6,3.1C49.1,106.8,49.7,106.1,50.1,105.4z M47.6,101.3c0.9,0,1.4,0.7,1.4,1.9H46
		C46.1,102,46.6,101.3,47.6,101.3z"/>
	<path class="st1" d="M53.1,106.1c-0.8,0-1.3-0.4-1.7-0.9l-0.7,0.5c0.6,0.7,1.5,1.1,2.4,1.1c1.1,0,2.1-0.6,2.1-1.8
		c0-2.2-3.5-1.6-3.5-2.9c0-0.5,0.4-0.9,1.1-0.9c0.6,0,1.1,0.3,1.6,0.8l0.6-0.5c-0.4-0.6-1.3-1-2.1-1.1c-1.2,0-2,0.6-2,1.6
		c-0.1,2.2,3.5,1.4,3.5,2.9C54.4,105.6,54.1,106.1,53.1,106.1z"/>
	<path class="st1" d="M60.6,105.4v-3c0-1.3-1.1-1.8-2.1-1.8c-1.1,0-1.9,0.6-2.3,1.3l0.7,0.4c0.2-0.4,0.6-0.9,1.5-0.9
		c0.7,0,1.2,0.3,1.2,1.1v0.3c-2.7,0.5-3.7,1.1-3.7,2.5c0,1.1,0.8,1.7,1.7,1.7c0.9,0,1.6-0.5,2-1l0.1,0.8h0.9
		C60.7,106.4,60.6,106,60.6,105.4z M59.8,105.1c-0.5,0.6-1.3,1-1.9,1c-0.5,0-1-0.4-1-0.9c0-0.8,0.9-1.4,2.9-1.7V105.1z"/>
	<path class="st1" d="M22.1,28h-1.5l0.9-2.2l0,0H26l0,0l0.8,2.2h-1.4v1h4v-1h-1.1l-0.9-2.2l-2.8-6.7h-1.5l-2.9,6.7L19.3,28h-1.1v1
		h3.9V28z M23.8,20.5l1.8,4.3H22L23.8,20.5z"/>
	<path class="st1" d="M66.6,28h-1.5v-2.2v-1.1h1.3c0.7,0,1.1,0.1,1.4,0.2c0.3,0.2,0.5,0.5,0.6,0.9l0,0l1.1,3.2h2.2v-1h-1.2l-0.7-2.2
		l-0.1-0.2c-0.1-0.4-0.3-0.7-0.5-0.9c-0.2-0.2-0.5-0.3-0.9-0.4c0.7-0.1,1.3-0.4,1.6-0.9c0.4-0.4,0.6-1,0.6-1.7
		c0-0.4-0.1-0.8-0.3-1.2c-0.2-0.4-0.4-0.7-0.7-0.9c-0.3-0.2-0.6-0.3-1-0.4c-0.4-0.1-1-0.1-2-0.1h-4.3v1h1.4v5.7V28h-1.4v1h4.2V28z
		 M65.1,20.1h1.6c0.9,0,1.5,0.1,1.9,0.4c0.4,0.3,0.6,0.7,0.6,1.4c0,0.6-0.2,1-0.7,1.3c-0.4,0.3-1.1,0.5-1.9,0.5h-1.6V20.1z"/>
	<polygon class="st1" points="38.3,25.9 37.2,25.9 37.2,28 32.7,28 32.7,25.8 32.7,24.5 34.9,24.5 34.9,25.8 34.9,25.9 35.9,25.9 
		35.9,25.8 35.9,22 34.9,22 34.9,23.5 32.7,23.5 32.7,20.1 37.2,20.1 37.2,22.1 38.3,22.1 38.3,19.1 30,19.1 30,20.1 31.3,20.1 
		31.3,25.8 31.3,28 30,28 30,29 38.3,29 	"/>
	<polygon class="st1" points="43.9,28 42.4,28 42.4,25.8 42.4,20.6 45.5,25.8 47.3,29 49.1,29 49.1,25.9 49.1,25.8 49.1,20.1 
		50.5,20.1 50.5,19.1 46.4,19.1 46.4,20.1 47.9,20.1 47.9,25.8 47.9,25.9 47.9,27.3 47,25.8 43.2,19.1 39.8,19.1 39.8,20.1 
		41.2,20.1 41.2,25.8 41.2,28 39.8,28 39.8,29 43.9,29 	"/>
	<rect x="28.3" y="130.2" class="st1" width="0.7" height="5.9"/>
	<path class="st1" d="M32.5,135.6c-0.9,0-1.3-0.6-1.5-1.2l-0.6,0.2c0.3,0.7,0.8,1.5,2.1,1.5c1.5,0,2-0.9,2-1.7
		c0-1.9-3.3-1.6-3.3-2.9c0-0.6,0.4-0.9,1.1-0.9c0.8,0,1.2,0.5,1.4,1l0.6-0.1c-0.3-1-1-1.5-1.9-1.5c-1.1,0-1.8,0.7-1.8,1.5
		c0,1.9,3.3,1.4,3.3,2.9C33.8,135.2,33.4,135.6,32.5,135.6z"/>
	<path class="st1" d="M37.7,136.2c1.4,0,2.3-1.1,2.3-3c0-2-0.9-3-2.3-3c-1.4,0-2.3,1.1-2.3,3C35.4,135.1,36.2,136.2,37.7,136.2z
		 M37.7,130.7c1,0,1.7,0.8,1.7,2.5c0,1.7-0.6,2.5-1.7,2.5c-1,0-1.7-0.8-1.7-2.5C36,131.5,36.6,130.7,37.7,130.7z"/>
	<path class="st1" d="M45.1,133.9c0.8,0,1.3-0.3,1.6-0.7c-0.1,1.6-0.9,2.5-1.8,2.5c-0.5,0-0.7-0.1-1-0.3l-0.3,0.5
		c0.2,0.2,0.6,0.3,1.3,0.3c1.6,0,2.4-1.5,2.4-3.3c0-2-0.9-2.7-2.1-2.7c-1,0-1.9,0.6-1.9,1.9C43.4,133.3,44.3,133.9,45.1,133.9z
		 M45.3,130.6c0.9,0,1.4,0.7,1.4,1.7c-0.2,0.6-0.8,1.1-1.5,1.1c-0.6,0-1.2-0.5-1.2-1.4C44,131.2,44.5,130.6,45.3,130.6z"/>
	<path class="st1" d="M50.4,136.2c1.3,0,2.1-0.9,2.1-3c0-2.1-0.8-3-2.1-3c-1.3,0-2.1,0.9-2.1,3C48.3,135.3,49.1,136.2,50.4,136.2z
		 M50.4,130.6c1,0,1.5,0.7,1.5,2.5c0,1.8-0.5,2.5-1.5,2.5c-1,0-1.5-0.7-1.5-2.5C48.9,131.3,49.4,130.6,50.4,130.6z"/>
	<path class="st1" d="M55.4,136.2c1.3,0,2.1-0.9,2.1-3c0-2.1-0.8-3-2.1-3s-2.1,0.9-2.1,3C53.3,135.3,54.1,136.2,55.4,136.2z
		 M55.4,130.6c1,0,1.5,0.7,1.5,2.5c0,1.8-0.5,2.5-1.5,2.5s-1.5-0.7-1.5-2.5C53.9,131.3,54.4,130.6,55.4,130.6z"/>
	<path class="st1" d="M60.1,135.6h-1v0.5h2.6v-0.5h-1v-5.5h-0.6c-0.3,0.2-0.7,0.3-1.1,0.4v0.4l1.1-0.1V135.6z"/>
	<path class="st1" d="M56.4,29.2c3.4,0,5-2.3,5-5.2c0-2.8-1.6-5.2-5-5.2c-3.4,0-5,2.3-5,5.2C51.4,26.9,53,29.2,56.4,29.2z M56.4,20
		c2.5,0,3.6,1.8,3.6,4.1s-1.1,4.1-3.6,4.1c-2.5,0-3.6-1.8-3.6-4.1S54,20,56.4,20z"/>
</g>
</svg>
