<?xml version="1.0" encoding="utf-8"?>
<!-- Generator: Adobe Illustrator 19.2.0, SVG Export Plug-In . SVG Version: 6.00 Build 0)  -->
<svg version="1.1" id="Layer_1" xmlns="http://www.w3.org/2000/svg" xmlns:xlink="http://www.w3.org/1999/xlink" x="0px" y="0px"
	 viewBox="0 0 150 150" style="enable-background:new 0 0 150 150;" xml:space="preserve">
<style type="text/css">
	.st0{fill-rule:evenodd;clip-rule:evenodd;fill:#6D6E71;}
	.st1{fill:#6D6E71;}
	.st2{fill:#FFFFFF;}
</style>
<g>
	<g>
		<polygon class="st0" points="47.2,68.9 46.9,70 45.4,70 46.7,70.9 46.1,72.4 47.2,71.4 48.3,72.4 47.9,70.9 49,70 47.8,70 		"/>
		<polygon class="st0" points="45.4,75.9 44.9,77.1 46,76.4 47.2,77.1 46.7,75.9 47.8,74.9 46.5,74.9 46,73.6 45.6,74.9 44.2,74.9 
					"/>
		<polygon class="st0" points="47.4,79.3 47,78.1 46.7,79.3 45.2,79.3 46.3,80.3 46,81.6 47,80.6 48.1,81.6 47.8,80.3 48.8,79.3 		
			"/>
		<polygon class="st0" points="50.8,82.7 50.5,81.4 49.9,82.7 48.7,82.7 49.7,83.6 49.4,85.1 50.5,84.1 51.6,84.9 51.2,83.6 
			52.3,82.7 		"/>
		<polygon class="st0" points="55.3,84.1 54.8,82.8 54.4,84.1 53.2,84.1 54.3,85.1 53.7,86.5 54.8,85.6 55.9,86.5 55.5,85.1 
			56.6,84.1 		"/>
		<polygon class="st0" points="59.7,83.9 60.8,84.9 60.4,83.6 61.5,82.7 60,82.7 59.7,81.4 59.1,82.7 57.9,82.7 59,83.6 58.6,84.9 
					"/>
		<polygon class="st0" points="63.1,79.2 62.7,77.9 62.4,79.2 60.9,79.2 62,80.1 61.7,81.6 62.7,80.6 63.8,81.6 63.5,80.1 
			64.5,79.2 		"/>
		<polygon class="st0" points="64.2,74.9 63.8,73.6 63.5,74.9 62,74.9 63.1,75.9 62.7,77.1 63.8,76.4 64.9,77.1 64.5,75.9 
			65.6,74.9 		"/>
		<polygon class="st0" points="62.4,68.7 61.8,70 60.6,70 61.7,70.9 61.3,72.2 62.4,71.4 63.5,72.2 62.9,70.9 64.2,70 62.7,70 		"/>
		<polygon class="st0" points="59.1,65.4 58.8,66.6 57.3,66.6 58.4,67.6 58,68.9 59.1,68.1 60.2,68.9 59.9,67.6 60.9,66.6 
			59.7,66.6 		"/>
		<polygon class="st0" points="54.8,64.4 54.3,65.5 53,65.5 54.1,66.5 53.7,67.9 54.8,67 55.9,67.7 55.5,66.5 56.6,65.5 55.2,65.5 
					"/>
		<polygon class="st0" points="50.7,66.6 50.3,65.4 49.9,66.6 48.5,66.6 49.6,67.6 49.2,68.9 50.3,68.1 51.4,68.9 51,67.6 
			52.1,66.6 		"/>
		<polygon class="st0" points="56.6,77 56.1,78.2 54.8,78.2 55.9,79.2 55.3,80.6 56.6,79.7 57.7,80.6 57.3,79.2 58.4,78.2 57,78.2 
					"/>
		<polygon class="st0" points="62.7,86.5 62.2,85.2 61.8,86.5 60.4,86.5 61.7,87.5 61.1,88.9 62.2,88 63.5,88.7 62.9,87.5 64,86.5 
					"/>
		<rect x="36.8" y="65.3" class="st0" width="4.8" height="19.2"/>
		<polygon class="st0" points="79.6,84.5 83.1,84.5 83.1,65.3 79,65.3 79,77 70.3,65.3 66.5,65.3 66.5,84.5 70.6,84.5 70.6,72.2 		
			"/>
		<path class="st0" d="M92.3,69.8c-4.4,0-7.6,3.1-7.6,7.5c0,4.5,3.3,7.4,8.3,7.4c1.1,0,3.8,0,6.4-1.9V80c-2.1,1.5-3.5,2.1-5.3,2.1
			c-2.8,0-4.6-1.5-4.7-4.1h10.3C100,72.8,96.5,69.8,92.3,69.8z M89.5,75.6c0.2-2,1.3-3.1,3.1-3.1c1.7,0,2.9,1.2,3.1,3.1H89.5z"/>
		<path class="st0" d="M106.6,65.6l-6,6.7v0.9h2.1v6.2c0,4,2.6,5.4,5.6,5.4c1.4,0,2.6-0.3,4.2-0.9v-3.3c-1.2,0.6-2.1,0.8-3,0.8
			c-1.4,0-2.2-0.9-2.2-2.3v-5.9h5.2v-3.1h-5.2v-4.5H106.6z"/>
		<rect x="33.2" y="58.7" class="st0" width="84.1" height="4.2"/>
		<rect x="33.2" y="90.1" class="st0" width="84.1" height="2.1"/>
	</g>
	<g>
		<path class="st1" d="M47.6,27.1c1-0.5,2.2-1.7,1.6-2.9c-0.5-0.9-1.4-0.9-2.2-0.5c-0.9,0.5-0.8,0.8-0.4,1.4L47.6,27.1z"/>
		<path class="st1" d="M24.5,101.8c0.8-0.9,1.6-1.7,2.2-2.6c-1.1,0-2.1,0.1-3.4,0.2L24.5,101.8z"/>
		<path class="st1" d="M28.1,69.7H10.2c-0.1,0.9-0.1,1.8-0.2,2.7h17.8C28,71.5,28,70.6,28.1,69.7z"/>
		<path class="st1" d="M34,114.8l1.9,1.8c0.5-1.1,0.9-2.1,1.2-3.2C36.1,113.9,35.1,114.3,34,114.8z"/>
		<path class="st1" d="M75,27.9c23.2,0,42.5,16.8,46.4,38.9h18c-4.1-31.9-31.4-56.6-64.4-56.6c-33.1,0-60.4,24.7-64.4,56.6h18
			C32.5,44.7,51.8,27.9,75,27.9z M116.7,43.7l4.8-3c0.4-0.2,0.5-0.3,0.4-0.6c-0.1-0.3,0-0.4,0.1-0.5c0.3-0.2,0.5,0.1,0.7,0.3
			l1.8,2.9c0.7,1,1.2,2.1,1,3.4c-0.1,1.3-0.9,2.4-2,3.1c-1,0.6-2.2,1-3.3,0.7c-1.2-0.3-2.1-1.1-2.8-2.2l-2.1-3.2
			c-0.1-0.2-0.2-0.5,0-0.7c0.2-0.1,0.3,0,0.5,0.1C116.2,44,116.4,43.9,116.7,43.7z M105.6,34.1c0.1-0.2,0.3-0.1,0.5-0.1
			c0.3,0.1,0.5,0,0.7-0.3l3.7-4.3c0.3-0.3,0.4-0.5,0.3-0.7c-0.2-0.2-0.1-0.4,0-0.5c0.2-0.2,0.5-0.1,0.7,0.1l4.2,3.6
			c0.3,0.2,0.4,0.4,0.4,0.5c0,0.2-0.4,0.8-0.6,1c-0.2,0.2-0.4,0.3-0.7,0.1c-0.2-0.2-0.2-0.4-0.2-0.6c0-0.7-0.1-0.9-1.1-1.7
			c-0.9-0.8-1.1-0.6-1.3-0.5l-1.4,1.6l1.4,1.2c0.6,0.5,0.8,0.1,1.1,0.4c0.3,0.3,0,0.7-0.2,0.9c-0.2,0.2-0.6,0.8-1,0.5
			c-0.3-0.3,0-0.5-0.6-1l-1.4-1.2l-1.3,1.5c-0.8,0.9-0.7,1.1,0.5,2.1c0.5,0.5,0.9,0.7,1.7,0.7c0.3,0,0.7-0.1,1,0.1
			c0.2,0.1,0.2,0.4,0.1,0.6c-0.2,0.2-0.6,0.5-0.9,0.6c-0.4,0.3-0.5,0.2-0.9-0.1l-4.4-3.8C105.5,34.6,105.3,34.3,105.6,34.1z
			 M96.9,29c0.1-0.2,0.2-0.2,0.4-0.2c0.3,0,0.4-0.1,0.6-0.5l2.6-5c0.2-0.4,0.3-0.6,0.1-0.7c-0.2-0.2-0.2-0.3-0.1-0.5
			c0.1-0.3,0.5-0.2,0.7-0.1l2,1c0.2,0.1,0.5,0.3,0.3,0.6c-0.1,0.2-0.2,0.2-0.4,0.2c-0.4,0-0.5,0.1-0.7,0.5l-2.6,5
			c-0.2,0.3-0.3,0.5-0.1,0.7c0.2,0.2,0.2,0.4,0.1,0.5c-0.1,0.3-0.5,0.2-0.7,0.1l-2-1C97,29.5,96.8,29.3,96.9,29z M84.7,24.5
			c0.3,0,0.4-0.2,0.5-0.6l1.4-5.5c0.1-0.4,0.2-0.6-0.1-0.7c-0.3-0.2-0.3-0.3-0.2-0.5c0.1-0.3,0.4-0.3,0.7-0.2l5,1.3
			c0.4,0.1,0.6,0.2,0.7,0.3c0.2,0.3,0.1,0.9,0,1.2c0,0.2-0.1,0.7-0.5,0.6c-0.2-0.1-0.3-0.3-0.4-0.4c-0.4-0.8-0.9-1-1.8-1.2
			c-1.1-0.3-1.2-0.2-1.4,0.6l-0.5,1.9l1.7,0.4c0.8,0.2,0.8-0.2,1.2-0.1c0.4,0.1,0.3,0.5,0.2,0.9c-0.1,0.5-0.3,1-0.6,0.9
			c-0.4-0.1-0.2-0.5-1-0.7L87.9,22l-0.6,2.4c-0.1,0.4-0.1,0.5,0,0.7c0.2,0.2,0.3,0.3,0.3,0.5c-0.1,0.3-0.4,0.3-0.7,0.2l-2.2-0.6
			c-0.3-0.1-0.5-0.2-0.5-0.5C84.3,24.6,84.5,24.5,84.7,24.5z M74.6,23.7c0.3-0.1,0.3-0.3,0.3-0.7l0.1-5.6c0-0.5,0-0.6-0.3-0.7
			c-0.3-0.1-0.4-0.2-0.3-0.4c0-0.3,0.3-0.4,0.6-0.4l2.2,0c0.3,0,0.6,0.1,0.6,0.4c0,0.2-0.1,0.3-0.2,0.3c-0.4,0.2-0.4,0.3-0.4,0.8
			L77.1,23c0,0.4,0,0.6,0.2,0.7c0.2,0.1,0.4,0.2,0.4,0.4c0,0.3-0.3,0.4-0.6,0.4l-2.2,0c-0.3,0-0.6-0.1-0.6-0.4
			C74.3,23.8,74.5,23.7,74.6,23.7z M59.4,17.8l5.9-1.3c0.5-0.1,0.6-0.1,0.9,0.6c0.2,0.4,0.2,0.5,0.2,0.6c0.1,0.3,0,0.5-0.3,0.5
			c-0.5,0.1-0.8-0.8-2.1-0.5c-0.4,0.1-0.4,0.3-0.3,0.7l1.2,5.5c0.1,0.4,0.1,0.5,0.4,0.6c0.3,0.1,0.4,0.1,0.5,0.3
			c0.1,0.3-0.2,0.5-0.5,0.5l-2.2,0.5c-0.3,0.1-0.6,0-0.7-0.3c0-0.2,0.1-0.3,0.2-0.4c0.3-0.2,0.3-0.4,0.2-0.8l-1.2-5.5
			c-0.1-0.5-0.1-0.6-0.6-0.5c-1.3,0.3-1.2,1.3-1.7,1.4c-0.3,0.1-0.4-0.1-0.5-0.4c0-0.1,0-0.3,0-0.7C58.8,17.9,58.9,17.9,59.4,17.8z
			 M43.7,24.5l3.7-2c0.6-0.3,1.2-0.6,1.9-0.6c0.7,0,1.4,0.4,1.8,1c0.5,1,0.1,2-0.5,2.9c1.1,0.4,2,1,2.8,1.8c0.3,0.2,0.4,0.4,0.8,0.4
			c0.2,0,0.3,0,0.4,0.2c0.2,0.3-0.2,0.5-0.4,0.6l-2,1.1c-0.3,0.1-0.6,0.3-0.8,0c-0.2-0.3,0.3-0.5,0.1-0.8c-0.3-0.5-1.9-1.5-2.6-1.7
			c-0.2,0.2-0.5,0.4-0.9,0.7l1,1.9c0.2,0.3,0.3,0.5,0.5,0.5c0.3,0,0.4,0,0.5,0.2c0.2,0.3-0.1,0.5-0.3,0.6l-2,1.1
			c-0.2,0.1-0.5,0.2-0.7-0.1c-0.1-0.2,0-0.3,0.1-0.5c0.2-0.3,0.1-0.4-0.1-0.8l-2.7-5c-0.2-0.4-0.3-0.6-0.6-0.5
			c-0.3,0.1-0.4,0-0.5-0.2C43.3,24.9,43.5,24.7,43.7,24.5z M31.3,34.8l3.9-3.9c0.3-0.2,0.4-0.4,0.6-0.4c0.2,0,0.8,0.5,0.9,0.7
			c0.2,0.2,0.3,0.4,0.1,0.7c-0.2,0.2-0.4,0.1-0.6,0.1c-0.7,0-0.9,0.1-1.8,0.9c-0.9,0.8-0.7,1.1-0.6,1.2l1.5,1.5l1.3-1.2
			c0.6-0.6,0.2-0.8,0.5-1.1c0.3-0.3,0.7,0.1,0.9,0.3c0.2,0.2,0.7,0.7,0.4,1c-0.3,0.3-0.5-0.1-1.1,0.5L36,36.4l1.4,1.5
			c0.8,0.9,1,0.8,2.2-0.3c0.5-0.5,0.8-0.8,0.8-1.6c0-0.3-0.1-0.7,0.2-0.9c0.2-0.1,0.4-0.2,0.6,0c0.2,0.2,0.4,0.7,0.6,1
			c0.2,0.5,0.2,0.6-0.2,0.9l-4.1,4c-0.2,0.2-0.5,0.3-0.7,0.1c-0.1-0.2-0.1-0.3,0-0.5c0.1-0.3,0-0.5-0.3-0.8l-3.9-4
			c-0.3-0.3-0.4-0.4-0.7-0.3c-0.3,0.1-0.4,0.1-0.5,0C31,35.3,31.1,35,31.3,34.8z M25.2,51.6c-2.3-1.3-2.9-4.3-1.6-6.5
			c0.5-0.8,1.2-1.6,2-2c0.2-0.1,0.3-0.2,0.5-0.1c0.2,0,1,0.4,1.2,0.5c0.2,0.1,0.3,0.4,0.2,0.7c-0.2,0.3-0.5,0.3-0.8,0.2
			c-0.7-0.1-1.7,0.1-2.3,1c-0.8,1.5,0.1,3.2,1.8,4.1c0.9,0.5,3.2,1.5,4.5-0.7c0.8-1.4-0.2-2.6,0.1-3.1c0.1-0.2,0.4-0.3,0.6-0.2
			c0.6,0.4,1,2.3,0,4.1C30,51.9,27.5,52.9,25.2,51.6z"/>
		<path class="st1" d="M122.3,47.2c1.6-1,2.5-2.7,1.4-4.5c-0.5-0.7-0.7-0.6-1.3-0.2l-4,2.6c-0.7,0.4-1,0.6-0.5,1.4
			C118.9,48.3,120.8,48.2,122.3,47.2z"/>
		<path class="st1" d="M122.2,75.3c-0.2,25.9-21.3,46.9-47.2,46.9c-25.9,0-47-21-47.2-46.9H10c0.2,34.7,27.5,63,61.9,64.6h6.2
			c34.3-1.6,61.7-29.9,61.9-64.6H122.2z M18.6,97.6c-0.3,0.1-0.5-0.2-0.6-0.4L17.4,95c-0.1-0.2-0.1-0.6,0.2-0.7
			c0.2-0.1,0.3,0,0.4,0.2c0.2,0.3,0.4,0.2,0.8,0.1c1.7-0.5,3.3-1.1,4.9-1.6c-1.8-0.1-3.4-0.3-5.2-0.5c-0.6-0.1-0.7-0.1-0.9-0.6
			c-0.1-0.5-0.2-0.7,0.2-1c1.3-1.2,2.6-2.2,4.1-3.4c-1.7,0.4-3.4,0.9-4.9,1.3c-0.4,0.1-0.5,0.3-0.5,0.8c0,0.2-0.1,0.3-0.3,0.4
			c-0.3,0.1-0.5-0.3-0.6-0.7l-0.3-1c-0.1-0.3-0.2-0.7,0.1-0.8c0.2-0.1,0.3,0,0.5,0.2c0.3,0.3,0.4,0.4,0.8,0.2
			c1.5-0.5,5.4-1.4,5.7-1.5c0.2-0.1,0.3-0.3,0.3-0.6c0-0.2,0-0.5,0.3-0.5c0.4-0.1,0.5,0.2,0.6,0.5l0.7,2.2c0.2,0.5-0.2,0.7-0.5,0.9
			c-1.4,1-2.5,1.9-3.7,2.9c1.5,0.2,3.2,0.4,4.9,0.5c0.4,0,0.6,0,0.7,0.5l0.6,1.9c0.1,0.2,0.1,0.6-0.2,0.7c-0.2,0.1-0.3,0-0.4-0.1
			c-0.3-0.5-0.5-0.4-0.9-0.3c-1.2,0.4-3.4,1.2-5.4,1.8c-0.4,0.1-0.5,0.2-0.6,0.4C18.8,97.4,18.8,97.5,18.6,97.6z M23.4,106.2
			c0,0.2,0,0.3-0.2,0.4c-0.3,0.2-0.5-0.1-0.6-0.4l-0.9-1.8c-0.1-0.2-0.3-0.6,0-0.8c0.3-0.2,0.5,0.3,0.8,0.2c0.2-0.1,0.5-0.3,1.4-1.3
			l-1.5-2.9c-1,0.1-1.4,0.2-1.6,0.3c-0.5,0.2-0.1,0.7-0.5,0.9c-0.3,0.2-0.5-0.2-0.7-0.5l-0.4-0.9c-0.2-0.3-0.3-0.6,0-0.8
			c0.1-0.1,0.3,0,0.4,0.1c0.2,0.1,0.3,0.2,0.5,0.1c2.3-0.5,4.9-0.7,7.7-0.6c0.5,0,0.6,0.1,0.8,0.7c0.3,0.5,0.2,0.6,0,1
			c-1.5,2.2-3.2,4-5,5.9C23.4,105.8,23.4,106,23.4,106.2z M27.8,113.7c-0.2-0.2-0.3-0.4-0.2-0.6c0.3-0.9,1.6-4.6,2.4-7.4l-4,3
			c-0.4,0.3-0.4,0.4-0.3,0.8c0.1,0.2,0,0.3-0.1,0.5c-0.3,0.2-0.5-0.1-0.8-0.4l-0.6-0.8c-0.2-0.3-0.5-0.7-0.2-0.9
			c0.2-0.1,0.3-0.1,0.5,0c0.4,0.2,0.5,0.3,0.9,0l4.2-3.1c0.7-0.5,0.7-0.7,0.6-1.1c-0.1-0.2-0.2-0.4,0.1-0.6c0.3-0.2,0.5,0.1,0.7,0.3
			l1,1.3c0.3,0.4,0.3,0.4,0.2,0.9c-0.2,1-0.4,1.9-1.9,6.1l3.2-2.4c0.4-0.3,0.4-0.4,0.3-0.8c-0.1-0.2,0-0.3,0.1-0.5
			c0.3-0.2,0.5,0.1,0.8,0.4l0.6,0.8c0.2,0.3,0.5,0.7,0.2,0.9c-0.2,0.1-0.3,0.1-0.5,0c-0.4-0.2-0.5-0.3-0.9,0l-5.1,3.8
			C28.3,114.2,28.2,114.3,27.8,113.7z M36.2,121.7c-0.2,0.2-0.5,0.1-0.7-0.1l-1.4-1.4c-0.2-0.2-0.5-0.5-0.3-0.8
			c0.3-0.3,0.6,0.1,0.8-0.1c0.1-0.1,0.3-0.4,0.9-1.7l-2.4-2.3c-0.9,0.4-1.2,0.6-1.4,0.8c-0.4,0.4,0.2,0.7-0.1,1
			c-0.3,0.3-0.5,0-0.8-0.3l-0.7-0.7c-0.3-0.2-0.5-0.5-0.2-0.8c0.1-0.1,0.3-0.1,0.4-0.1c0.2,0,0.3,0.1,0.5,0c2-1.2,4.4-2.3,7.1-3.1
			c0.4-0.1,0.6-0.1,1,0.4c0.4,0.4,0.4,0.5,0.3,0.9c-0.7,2.6-1.8,4.9-2.8,7.2c-0.1,0.1-0.1,0.3,0,0.5
			C36.3,121.4,36.3,121.5,36.2,121.7z M45,126.6c-0.2,0.3-0.8,0.3-1.8,0.1c-0.9-0.2-1.5-0.5-2.3-1c-2.2-1.5-3-4-1.5-6.3
			c1.6-2.3,4.4-2.5,6.7-1c0.7,0.5,1.5,1.3,1.8,2c0.1,0.2,0.2,0.4,0.2,0.6c0,0.2-0.4,0.7-0.5,0.9c-0.3,0.5-0.5,0.4-0.7,0.3
			c-0.2-0.2-0.2-0.4-0.2-0.6c0.2-1-0.1-1.9-0.9-2.4c-1.6-1.1-3.5,0-4.4,1.4c-0.9,1.2-1.3,3.3,0.2,4.3c0.3,0.2,0.8,0.4,1.3,0.3
			c0.5-0.1,0.8-0.6,1.1-1c0.4-0.6,0.5-0.8-0.2-1.3c-0.5-0.3-0.8-0.5-0.5-0.9c0.2-0.3,0.5-0.2,1,0.1l1.6,1.1c0.8,0.6,0.9,0.7,0.7,1
			c-0.2,0.2-0.4,0.4-0.9,1.1C45.3,126,45.1,126.5,45,126.6z M54.2,124.6c-0.2-0.6-0.4-0.8-1.5-1.3c-1.1-0.5-1.3-0.3-1.4-0.1l-0.9,2
			l1.6,0.8c0.8,0.4,0.8-0.1,1.2,0.1c0.4,0.2,0.2,0.6,0,0.9c-0.1,0.3-0.4,0.9-0.8,0.7c-0.4-0.2-0.1-0.5-0.8-0.8l-1.6-0.8l-0.9,1.8
			c-0.5,1.1-0.4,1.2,1,1.9c0.6,0.3,1.1,0.5,1.8,0.2c0.3-0.1,0.7-0.3,0.9-0.2c0.2,0.1,0.3,0.3,0.2,0.5c-0.1,0.3-0.5,0.6-0.7,0.9
			c-0.4,0.4-0.5,0.4-0.9,0.2l-5.2-2.5c-0.2-0.1-0.5-0.3-0.4-0.6c0.1-0.2,0.2-0.2,0.4-0.2c0.3,0,0.4-0.1,0.6-0.5l2.4-5.1
			c0.2-0.4,0.3-0.6,0.1-0.7c-0.2-0.2-0.2-0.3-0.1-0.5c0.1-0.3,0.5-0.2,0.7-0.1l5,2.4c0.3,0.2,0.5,0.3,0.5,0.4
			c0.1,0.2-0.2,0.9-0.3,1.1c-0.1,0.2-0.3,0.4-0.6,0.3C54.3,125,54.3,124.8,54.2,124.6z M66.4,127.4c-0.6,0-0.6,0.2-0.7,0.6
			c-0.3,1.2-0.8,3.5-1.3,5.5c-0.1,0.4-0.1,0.5,0.1,0.7c0.2,0.2,0.3,0.3,0.3,0.5c-0.1,0.3-0.4,0.3-0.7,0.2l-2.2-0.6
			c-0.3-0.1-0.5-0.2-0.5-0.5c0.1-0.2,0.2-0.2,0.4-0.3c0.3,0,0.4-0.2,0.5-0.6c0.5-1.7,0.8-3.4,1.2-5c-1.1,1.4-2,2.8-3.2,4.1
			c-0.4,0.5-0.5,0.6-1,0.4c-0.5-0.1-0.6-0.2-0.7-0.7c-0.3-1.7-0.5-3.4-0.7-5.2c-0.6,1.7-1.1,3.4-1.5,4.8c-0.1,0.4,0,0.6,0.4,0.8
			c0.2,0.1,0.2,0.2,0.2,0.5c-0.1,0.3-0.5,0.2-0.9,0.1l-1-0.3c-0.3-0.1-0.7-0.2-0.6-0.5c0.1-0.2,0.2-0.3,0.4-0.3
			c0.4-0.1,0.5-0.2,0.6-0.6c0.4-1.5,1.7-5.4,1.8-5.7c0.1-0.2-0.1-0.4-0.4-0.6c-0.2-0.1-0.4-0.2-0.3-0.5c0.1-0.4,0.5-0.3,0.8-0.2
			l2.2,0.6c0.5,0.2,0.5,0.5,0.5,0.9c0.1,1.7,0.3,3.2,0.5,4.7c1-1.2,2-2.5,3-3.9c0.3-0.3,0.3-0.5,0.8-0.3l1.9,0.5
			c0.3,0.1,0.5,0.2,0.5,0.5C66.6,127.4,66.5,127.4,66.4,127.4z M74.4,128.6c0,0.3-0.2,0.5-0.5,0.5c-0.3,0-0.4-0.2-0.5-0.4
			c-0.4-0.5-0.6-0.6-1.9-0.8c-1.2-0.1-1.3,0.1-1.3,0.4l-0.2,2.2l1.8,0.2c0.8,0.1,0.7-0.4,1.1-0.3c0.4,0,0.4,0.6,0.3,0.8
			c0,0.3,0,1-0.5,1c-0.4,0-0.3-0.4-1.1-0.5l-1.8-0.2l-0.2,2c-0.1,1.2,0,1.3,1.6,1.5c0.7,0.1,1.2,0.1,1.7-0.4
			c0.2-0.2,0.5-0.5,0.8-0.5c0.2,0,0.4,0.2,0.4,0.4c0,0.3-0.2,0.8-0.4,1c-0.2,0.5-0.3,0.5-0.8,0.5l-5.8-0.5c-0.3,0-0.6-0.1-0.5-0.5
			c0-0.2,0.2-0.3,0.3-0.3c0.3-0.1,0.4-0.3,0.4-0.7l0.5-5.6c0-0.5,0.1-0.6-0.2-0.7c-0.3-0.1-0.3-0.2-0.3-0.4c0-0.3,0.4-0.4,0.6-0.3
			l5.5,0.5c0.4,0,0.6,0.1,0.6,0.2C74.5,127.7,74.4,128.4,74.4,128.6z M83.6,127.7c-0.4,0.2-0.5,0.3-0.5,0.8l0.4,6.4
			c0,0.7,0,0.8-0.7,0.9c-0.3,0-0.5,0-0.6-0.2c-0.6-0.8-3-3.9-4.9-6l0.3,4.9c0,0.4,0.2,0.5,0.6,0.7c0.2,0.1,0.3,0.1,0.3,0.4
			c0,0.4-0.4,0.4-0.8,0.4l-1,0.1c-0.4,0-0.8,0-0.8-0.3c0-0.2,0.1-0.3,0.3-0.4c0.4-0.2,0.5-0.3,0.5-0.8l-0.3-5.2
			c-0.1-0.9-0.2-1-0.6-1.1c-0.2-0.1-0.5-0.1-0.5-0.4c0-0.4,0.3-0.4,0.6-0.4l1.6-0.1c0.4,0,0.5,0,0.8,0.3c0.7,0.7,1.4,1.4,4.1,4.9
			l-0.2-4c0-0.4-0.1-0.5-0.6-0.7c-0.2-0.1-0.3-0.1-0.3-0.4c0-0.4,0.3-0.4,0.8-0.4l1-0.1c0.4,0,0.8,0,0.8,0.3
			C83.9,127.5,83.8,127.6,83.6,127.7z M92.1,127c-0.5,0.1-0.8-0.8-2.1-0.5c-0.4,0.1-0.4,0.3-0.3,0.7l1.2,5.5
			c0.1,0.4,0.1,0.5,0.4,0.6c0.3,0.1,0.4,0.1,0.5,0.3c0.1,0.3-0.2,0.5-0.5,0.5l-2.2,0.5c-0.3,0.1-0.6,0-0.7-0.3
			c0-0.2,0.1-0.3,0.2-0.4c0.3-0.2,0.3-0.4,0.2-0.8l-1.2-5.5c-0.1-0.5-0.2-0.6-0.6-0.5c-1.3,0.3-1.2,1.3-1.7,1.4
			c-0.3,0.1-0.4-0.1-0.5-0.4c0-0.1,0-0.3,0-0.7c0-0.7,0.1-0.8,0.6-0.9l5.9-1.3c0.5-0.1,0.6-0.1,0.9,0.5c0.2,0.4,0.2,0.5,0.3,0.6
			C92.4,126.8,92.4,127,92.1,127z M101.9,129.8c-2.6,1.3-4,0.2-4.2-0.2c-0.1-0.3-0.1-0.7,0.2-0.8c0.3-0.1,0.4-0.1,1.2,0.3
			c0.4,0.3,1.3,0.4,2.3-0.1c0.7-0.4,1.4-1.2,1-2c-0.9-1.9-4.8,1.8-6.3-1.3c-0.3-0.5-0.8-2.6,1.9-4c0.8-0.4,1.7-0.6,2.6-0.6
			c0.2,0,0.3,0,0.4,0.2c0.2,0.2,0.4,0.7,0.5,0.9c0.1,0.3,0.1,0.5-0.2,0.6c-0.6,0.3-1.2-1.3-3-0.4c-0.6,0.3-1.2,1-0.8,1.7
			c0.9,1.9,4.8-1.7,6.3,1.4C104.5,126.6,104.3,128.6,101.9,129.8z M111,124.1l-1.8,1.3c-0.2,0.2-0.5,0.3-0.7,0
			c-0.1-0.2-0.1-0.3,0-0.5c0.2-0.3,0.1-0.5-0.2-0.8l-1.1-1.6c-1.5-0.5-2.8-1-4.2-1.7c-0.4-0.2-0.4-0.2-0.8-0.1c-0.2,0-0.4,0-0.5-0.2
			c-0.2-0.3,0.1-0.6,0.5-0.8l1.8-1.3c0.3-0.2,0.5-0.3,0.8,0c0.2,0.3-0.3,0.6-0.1,0.8c0.2,0.3,0.8,0.6,3.4,1.5c0.1-2.3,0-3.4-0.2-3.7
			c-0.2-0.3-0.6,0.1-0.9-0.3c-0.2-0.3,0.1-0.5,0.3-0.7l0.8-0.6c0.3-0.2,0.6-0.4,0.8-0.1c0.1,0.1,0.1,0.3,0,0.4
			c-0.1,0.3-0.1,0.3-0.1,0.7c0.2,1.6,0.2,3.1,0.1,4.6l1.2,1.7c0.2,0.3,0.3,0.5,0.6,0.4c0.3,0,0.4-0.1,0.5,0.1
			C111.4,123.7,111.2,123.9,111,124.1z M117.5,118.8c-2.1,2-3.7,1.4-4.1,1.1c-0.2-0.2-0.3-0.6,0-0.9c0.2-0.2,0.3-0.2,1.3,0
			c0.5,0.1,1.3,0,2.1-0.8c0.6-0.6,1-1.6,0.3-2.3c-1.5-1.5-4,3.2-6.4,0.7c-0.4-0.4-1.6-2.3,0.6-4.4c0.6-0.6,1.5-1.1,2.3-1.4
			c0.2,0,0.3-0.1,0.5,0c0.3,0.1,0.6,0.5,0.8,0.7c0.2,0.2,0.2,0.4,0,0.7c-0.5,0.4-1.6-0.8-2.9,0.5c-0.5,0.5-0.8,1.3-0.3,1.8
			c1.5,1.5,4-3.1,6.4-0.6C119,114.9,119.4,116.9,117.5,118.8z M124.1,110.8l-1.4,1.8c-0.2,0.2-0.4,0.4-0.7,0.2
			c-0.2-0.1-0.1-0.3-0.1-0.5c0.1-0.3-0.1-0.5-0.4-0.7l-4.5-3.4c-0.4-0.3-0.5-0.4-0.8,0c-0.8,1.1-0.1,1.7-0.4,2.2
			c-0.2,0.2-0.4,0.2-0.6,0c-0.1-0.1-0.2-0.2-0.5-0.5c-0.5-0.5-0.4-0.6-0.1-1.1l3.6-4.8c0.3-0.4,0.4-0.5,1.1-0.2
			c0.4,0.2,0.5,0.2,0.6,0.3c0.2,0.2,0.3,0.4,0.1,0.6c-0.3,0.4-1.2-0.1-2,1c-0.3,0.4-0.2,0.5,0.2,0.8l4.5,3.4
			c0.3,0.2,0.4,0.3,0.7,0.2c0.3-0.1,0.4-0.2,0.6-0.1C124.4,110.3,124.3,110.6,124.1,110.8z M129.7,101l-2.8,5.1
			c-0.1,0.2-0.3,0.5-0.6,0.3c-0.2-0.1-0.2-0.2-0.2-0.4c0-0.3-0.1-0.4-0.5-0.6l-5-2.7c-0.4-0.2-0.6-0.3-0.7-0.1
			c-0.2,0.2-0.3,0.2-0.5,0.1c-0.3-0.2-0.2-0.5-0.1-0.7l2.6-4.8c0.2-0.3,0.3-0.5,0.4-0.5c0.2,0,0.9,0.2,1.1,0.4
			c0.2,0.1,0.4,0.3,0.2,0.6c-0.1,0.2-0.3,0.3-0.6,0.3c-0.6,0.2-0.8,0.3-1.4,1.4c-0.6,1.1-0.4,1.2-0.2,1.4l1.9,1l0.8-1.6
			c0.4-0.7,0-0.8,0.1-1.2c0.2-0.4,0.7-0.1,0.9,0c0.3,0.2,0.9,0.4,0.7,0.8c-0.2,0.4-0.5,0.1-0.9,0.8l-0.8,1.6l1.8,1
			c1.1,0.6,1.2,0.5,2-0.9c0.3-0.6,0.5-1,0.3-1.8c-0.1-0.3-0.3-0.7-0.1-0.9c0.1-0.2,0.3-0.3,0.5-0.2c0.3,0.2,0.6,0.5,0.8,0.7
			C130,100.5,130,100.6,129.7,101z M133.4,90.9c-0.1,0.2-0.3,0.5-0.6,0.4c-0.2-0.1-0.2-0.2-0.3-0.4c0-0.3-0.2-0.4-0.6-0.5
			c-1.7-0.6-3.3-1-4.9-1.5c1.4,1.1,2.6,2.2,4,3.4c0.4,0.4,0.5,0.5,0.4,1c-0.2,0.5-0.2,0.6-0.8,0.7c-1.7,0.2-3.4,0.3-5.3,0.4
			c1.6,0.7,3.3,1.3,4.7,1.8c0.4,0.1,0.6,0.1,0.9-0.3c0.1-0.2,0.3-0.2,0.5-0.2c0.3,0.1,0.2,0.5,0.1,0.9l-0.3,1
			c-0.1,0.3-0.2,0.7-0.6,0.6c-0.2-0.1-0.3-0.2-0.3-0.4c0-0.5-0.1-0.5-0.5-0.7c-1.5-0.5-5.3-2-5.5-2.1c-0.2-0.1-0.4,0.1-0.6,0.4
			c-0.1,0.2-0.3,0.4-0.5,0.3c-0.4-0.1-0.3-0.5-0.2-0.8l0.7-2.2c0.2-0.5,0.5-0.5,0.9-0.5c1.7,0,3.2-0.1,4.7-0.2
			c-1.1-1.1-2.4-2.1-3.7-3.2c-0.3-0.3-0.4-0.4-0.3-0.9l0.6-1.9c0.1-0.2,0.3-0.5,0.6-0.4c0.2,0.1,0.2,0.2,0.2,0.3
			c0,0.6,0.2,0.6,0.5,0.8c1.2,0.4,3.5,1,5.4,1.6c0.3,0.1,0.5,0.2,0.7,0c0.2-0.2,0.3-0.3,0.5-0.2c0.3,0.1,0.3,0.4,0.2,0.7L133.4,90.9
			z"/>
		<path class="st1" d="M122.1,72.4h17.8c0-0.9-0.1-1.8-0.2-2.7h-17.9C122,70.6,122,71.5,122.1,72.4z"/>
	</g>
</g>
</svg>
