<?xml version="1.0" encoding="utf-8"?>
<!-- Generator: Adobe Illustrator 19.2.0, SVG Export Plug-In . SVG Version: 6.00 Build 0)  -->
<svg version="1.1" id="Layer_1" xmlns="http://www.w3.org/2000/svg" xmlns:xlink="http://www.w3.org/1999/xlink" x="0px" y="0px"
	 viewBox="0 0 80 80" style="enable-background:new 0 0 80 80;" xml:space="preserve">
<style type="text/css">
	.st0{fill:#868686;}
</style>
<g>
	<g>
		<path class="st0" d="M27,54.7l12.1,6c0.1,0.1,0.3,0.1,0.4,0.1c0.4,0,0.7-0.2,0.9-0.6c0.2-0.5,0-1.1-0.5-1.3l-12.1-6
			c-0.5-0.2-1.1,0-1.3,0.5C26.3,53.8,26.5,54.4,27,54.7z"/>
		<path class="st0" d="M60,70.9l-11.1,0c8.1-3.6,13.7-11.7,13.7-21.1c0-7.6-3.7-14.6-9.8-18.9c-0.1-0.8-0.3-1.6-0.7-2.4l8.3-16.6
			c0.2-0.5,0-1.1-0.5-1.3l-6.4-3.2c-0.2-0.1-0.5-0.1-0.8-0.1c-0.3,0.1-0.5,0.3-0.6,0.5l-8.4,16.9c-1.9,0.5-3.6,1.8-4.6,3.7
			c-1,1.9-1,4-0.2,5.9l-4.9,9.8c-0.2,0.5,0,1.1,0.5,1.3l6.4,3.2c0.1,0.1,0.3,0.1,0.5,0.1c0.1,0,0.2,0,0.3-0.1
			c0.3-0.1,0.5-0.3,0.6-0.5l4.7-9.5c0.6-0.1,1.2-0.3,1.7-0.6c3.6,2.9,5.7,7.2,5.7,11.8c0,8.3-6.8,15.1-15.1,15.1l-18.1,0
			c-2.2,0-4,1.8-4,4s1.8,4,4,4l38.6,0c0.6,0,1-0.5,1-1C61,71.3,60.5,70.9,60,70.9z M53.6,9.5l4.6,2.3l-7.4,14.7
			c-0.6-0.6-1.2-1.1-2-1.5c-0.9-0.4-1.8-0.7-2.7-0.7L53.6,9.5z M41,46.2l-4.6-2.3l3.8-7.7c0.6,0.7,1.3,1.3,2.2,1.7
			c0.8,0.4,1.6,0.6,2.4,0.7L41,46.2z M43.4,36.1c-2.5-1.3-3.5-4.3-2.3-6.9c1.3-2.5,4.3-3.5,6.9-2.3c2.5,1.3,3.5,4.3,2.3,6.9
			C49,36.3,46,37.3,43.4,36.1z M21.4,70.9c-1.1,0-2-0.9-2-2c0-1.1,0.9-2,2-2l18.1,0c9.4,0,17.1-7.7,17.1-17.1
			c0-5.1-2.3-9.9-6.1-13.1c1-1,1.7-2.2,2-3.6c5.2,4,8.2,10.1,8.2,16.7c0,11.7-9.5,21.1-21.1,21.1L21.4,70.9z"/>
	</g>
</g>
</svg>
