<?xml version="1.0" encoding="utf-8"?>
<!-- Generator: Adobe Illustrator 17.0.0, SVG Export Plug-In . SVG Version: 6.00 Build 0)  -->
<!DOCTYPE svg PUBLIC "-//W3C//DTD SVG 1.1//EN" "http://www.w3.org/Graphics/SVG/1.1/DTD/svg11.dtd">
<svg version="1.1" id="Layer_1" xmlns="http://www.w3.org/2000/svg" xmlns:xlink="http://www.w3.org/1999/xlink" x="0px" y="0px"
	 width="610.068px" height="330px" viewBox="0 230.5 610.068 330" enable-background="new 0 230.5 610.068 330"
	 xml:space="preserve">
<g>
	<g>
		<path fill="#868686" d="M234.09,380.7c-9.945,0-14.535,12.24-19.125,19.125c-11.475,20.655-11.475,17.595,0,38.25
			c3.825,6.885,8.415,19.125,19.125,19.125h143.055c9.945,0,14.535-12.24,19.125-19.125c11.475-20.655,11.475-17.595,0-38.25
			c-3.825-6.885-8.415-19.125-19.125-19.125H234.09z"/>
		<path fill="#868686" d="M234.09,288.9c-9.945,0-14.535,12.24-19.125,19.125c-11.475,20.655-11.475,17.595,0,38.25
			c3.825,6.885,8.415,19.125,19.125,19.125h143.055c9.945,0,14.535-12.24,19.125-19.125c11.475-20.655,11.475-17.595,0-38.25
			c-3.825-6.885-8.415-19.125-19.125-19.125H234.09z"/>
		<path fill="#868686" d="M234.09,472.5c-9.945,0-14.535,12.24-19.125,19.125c-11.475,20.655-11.475,17.595,0,38.25
			C218.79,536.76,223.38,549,234.09,549h143.055c9.945,0,14.535-12.24,19.125-19.125c11.475-20.655,11.475-17.595,0-38.25
			c-3.825-6.885-8.415-19.125-19.125-19.125H234.09z"/>
	</g>
	<g>
		<g>
			<path fill="#868686" d="M35.955,334.8c-9.945,0-14.535,12.24-19.125,19.125c-11.475,20.655-11.475,17.595,0,38.25
				c3.825,6.885,8.415,19.125,19.125,19.125H179.01c9.945,0,14.535-12.24,19.125-19.125c11.475-20.655,11.475-17.595,0-38.25
				c-3.825-6.885-8.415-19.125-19.125-19.125H35.955z"/>
			<path fill="#868686" d="M35.955,243c-9.945,0-14.535,12.24-19.125,19.125c-11.475,20.655-11.475,17.595,0,38.25
				c3.825,6.885,8.415,19.125,19.125,19.125H179.01c9.945,0,14.535-12.24,19.125-19.125c11.475-20.655,11.475-17.595,0-38.25
				C194.31,255.24,189.72,243,179.01,243H35.955z"/>
			<path fill="#868686" d="M35.955,426.6c-9.945,0-14.535,12.24-19.125,19.125c-11.475,20.655-11.475,17.595,0,38.25
				c3.825,6.885,8.415,19.125,19.125,19.125H179.01c9.945,0,14.535-12.24,19.125-19.125c11.475-20.655,11.475-17.595,0-38.25
				c-3.825-6.885-8.415-19.125-19.125-19.125H35.955z"/>
		</g>
		<g>
			<path fill="#868686" d="M432.99,334.8c-9.945,0-14.535,12.24-19.125,19.125c-11.475,20.655-11.475,17.595,0,38.25
				c3.825,6.885,8.415,19.125,19.125,19.125h143.055c9.945,0,14.535-12.24,19.125-19.125c11.475-20.655,11.475-17.595,0-38.25
				c-3.825-6.885-8.415-19.125-19.125-19.125H432.99z"/>
			<path fill="#868686" d="M432.99,243c-9.945,0-14.535,12.24-19.125,19.125c-11.475,20.655-11.475,17.595,0,38.25
				c3.825,6.885,8.415,19.125,19.125,19.125h143.055c9.945,0,14.535-12.24,19.125-19.125c11.475-20.655,11.475-17.595,0-38.25
				C591.345,255.24,586.755,243,576.045,243H432.99z"/>
			<path fill="#868686" d="M432.99,426.6c-9.945,0-14.535,12.24-19.125,19.125c-11.475,20.655-11.475,17.595,0,38.25
				c3.825,6.885,8.415,19.125,19.125,19.125h143.055c9.945,0,14.535-12.24,19.125-19.125c11.475-20.655,11.475-17.595,0-38.25
				c-3.825-6.885-8.415-19.125-19.125-19.125H432.99z"/>
		</g>
	</g>
</g>
</svg>
