<?xml version="1.0" encoding="utf-8"?>
<!-- Generator: Adobe Illustrator 19.2.0, SVG Export Plug-In . SVG Version: 6.00 Build 0)  -->
<svg version="1.1" id="Layer_1" xmlns="http://www.w3.org/2000/svg" xmlns:xlink="http://www.w3.org/1999/xlink" x="0px" y="0px"
	 viewBox="0 0 80 80" style="enable-background:new 0 0 80 80;" xml:space="preserve">
<style type="text/css">
	.st0{fill:#868686;}
</style>
<g>
	<g>
		<path class="st0" d="M54.2,64.6c-13,0-23.6-10.6-23.6-23.6c0-4.8,1.4-9.5,4.2-13.4c0.5-0.7,1.4-0.9,2.1-0.4
			c0.7,0.5,0.9,1.4,0.4,2.1c-2.4,3.4-3.6,7.5-3.6,11.7c0,11.4,9.2,20.6,20.6,20.6S74.8,52.4,74.8,41s-9.2-20.6-20.6-20.6
			c-3.2,0-6.2,0.7-9.1,2.1c-0.7,0.4-1.6,0.1-2-0.7c-0.4-0.7-0.1-1.6,0.7-2c3.2-1.6,6.7-2.4,10.4-2.4c13,0,23.6,10.6,23.6,23.6
			C77.8,54,67.2,64.6,54.2,64.6z"/>
	</g>
	<g>
		<path class="st0" d="M25.8,64.6C12.8,64.6,2.2,54,2.2,41c0-13,10.6-23.6,23.6-23.6S49.4,28,49.4,41c0,4.8-1.4,9.5-4.2,13.4
			c-0.5,0.7-1.4,0.9-2.1,0.4c-0.7-0.5-0.9-1.4-0.4-2.1c2.4-3.4,3.6-7.5,3.6-11.7c0-11.4-9.2-20.6-20.6-20.6S5.2,29.6,5.2,41
			s9.2,20.6,20.6,20.6c3.2,0,6.2-0.7,9.1-2.1c0.7-0.4,1.6-0.1,2,0.7c0.4,0.7,0.1,1.6-0.7,2C33,63.8,29.5,64.6,25.8,64.6z"/>
	</g>
</g>
</svg>
