<?xml version="1.0" encoding="utf-8"?>
<!-- Generator: Adobe Illustrator 19.2.0, SVG Export Plug-In . SVG Version: 6.00 Build 0)  -->
<svg version="1.1" id="Layer_1" xmlns="http://www.w3.org/2000/svg" xmlns:xlink="http://www.w3.org/1999/xlink" x="0px" y="0px"
	 viewBox="0 0 80 80" style="enable-background:new 0 0 80 80;" xml:space="preserve">
<style type="text/css">
	.st0{fill:#868686;}
</style>
<g>
	<g>
		<path class="st0" d="M58.5,41.5h-37c-0.8,0-1.5-0.7-1.5-1.5s0.7-1.5,1.5-1.5h37c0.8,0,1.5,0.7,1.5,1.5S59.3,41.5,58.5,41.5z"/>
	</g>
	<g>
		<path class="st0" d="M40,60c-0.8,0-1.5-0.7-1.5-1.5v-37c0-0.8,0.7-1.5,1.5-1.5s1.5,0.7,1.5,1.5v37C41.5,59.3,40.8,60,40,60z"/>
	</g>
	<g>
		<path class="st0" d="M40,69.4c-16.2,0-29.4-13.2-29.4-29.4c0-16.2,13.2-29.4,29.4-29.4c16.2,0,29.4,13.2,29.4,29.4
			C69.4,56.2,56.2,69.4,40,69.4z M40,13.6c-14.6,0-26.4,11.8-26.4,26.4S25.4,66.4,40,66.4c14.6,0,26.4-11.8,26.4-26.4
			S54.6,13.6,40,13.6z"/>
	</g>
</g>
</svg>
