<?xml version="1.0" encoding="utf-8"?>
<!-- Generator: Adobe Illustrator 19.2.0, SVG Export Plug-In . SVG Version: 6.00 Build 0)  -->
<svg version="1.1" id="Layer_1" xmlns="http://www.w3.org/2000/svg" xmlns:xlink="http://www.w3.org/1999/xlink" x="0px" y="0px"
	 viewBox="0 0 80 80" style="enable-background:new 0 0 80 80;" xml:space="preserve">
<style type="text/css">
	.st0{fill:#868686;}
</style>
<g>
	<path class="st0" d="M45.1,32.6l1.9-3.8c0.1-0.1,0.1-0.3,0.1-0.4v-6c0-0.2,0-0.3-0.1-0.4c-0.1-0.2-2.3-4.5-6.9-4.5
		s-6.8,4.4-6.9,4.5c-0.1,0.1-0.1,0.3-0.1,0.4v6c0,0.2,0,0.3,0.1,0.4l1.9,3.8v1.2l-7.7,3.7c-0.3,0.2-0.4,0.5-0.4,0.8v18
		c0,0.3,0,5.3,0,5.3c0,0.6,0.4,1,1,1s1-0.4,1-1v-5.7v-17l7.7-3.7c0.3-0.2,0.4-0.5,0.4-0.8v-2c0-0.2,0-0.3-0.1-0.4l-1.9-3.8v-5.5
		c0.4-0.7,2.1-3.3,5-3.3c2.9,0,4.6,2.5,5,3.3v5.5l-1.9,3.8c-0.1,0.1-0.1,0.3-0.1,0.4v2c0,0.6,0.4,1,1,1s1-0.4,1-1V32.6z"/>
	<path class="st0" d="M35.1,34.4c0,0.6,0.4,1,1,1s1-0.4,1-1v-2c0-0.2,0-0.3-0.1-0.4l-1.9-3.8v-5.5c0.4-0.7,2.1-3.3,5-3.3
		c2.9,0,4.6,2.5,5,3.3v5.5l-1.9,3.8c-0.1,0.1-0.1,0.3-0.1,0.4v2c0,0.3,0.2,0.6,0.4,0.8l7.7,3.7v17v5.7c0,0.6,0.4,1,1,1
		c0.6,0,1-0.4,1-1c0,0,0-5,0-5.3v-18c0-0.3-0.2-0.6-0.4-0.8l-7.7-3.7v-1.2l1.9-3.8c0.1-0.1,0.1-0.3,0.1-0.4v-6c0-0.2,0-0.3-0.1-0.4
		c-0.1-0.2-2.3-4.5-6.9-4.5s-6.8,4.4-6.9,4.5c-0.1,0.1-0.1,0.3-0.1,0.4v6c0,0.2,0,0.3,0.1,0.4l1.9,3.8V34.4z"/>
	<path class="st0" d="M53,34.4c0,0.6,0.4,1,1,1s1-0.4,1-1v-2c0-0.2,0-0.3-0.1-0.4L53,28.1v-5.5c0.4-0.7,2.1-3.3,5-3.3
		c2.9,0,4.6,2.5,5,3.3v5.5l-1.9,3.8C61,32.1,61,32.2,61,32.4v2c0,0.3,0.2,0.6,0.4,0.8l5.5,3.7v17v5.7c0,0.6,0.4,1,1,1
		c0.6,0,1-0.4,1-1c0,0,0-5,0-5.3v-18c0-0.3-0.2-0.6-0.4-0.8L63,33.8v-1.2l1.9-3.8c0.1-0.1,0.1-0.3,0.1-0.4v-6c0-0.2,0-0.3-0.1-0.4
		c-0.1-0.2-2.3-4.5-6.9-4.5s-6.8,4.4-6.9,4.5C51,22.1,51,22.2,51,22.4v6c0,0.2,0,0.3,0.1,0.4l1.9,3.8V34.4z"/>
	<path class="st0" d="M27,32.6l1.9-3.8c0.1-0.1,0.1-0.3,0.1-0.4v-6c0-0.2,0-0.3-0.1-0.4c-0.1-0.2-2.3-4.5-6.9-4.5s-6.8,4.4-6.9,4.5
		c-0.1,0.1-0.1,0.3-0.1,0.4v6c0,0.2,0,0.3,0.1,0.4l1.9,3.8v1.2l-5.5,3.7C11.2,37.7,11,38,11,38.4v18c0,0.3,0,5.3,0,5.3
		c0,0.6,0.4,1,1,1s1-0.4,1-1v-5.7v-17l5.5-3.7c0.3-0.2,0.4-0.5,0.4-0.8v-2c0-0.2,0-0.3-0.1-0.4L17,28.1v-5.5c0.4-0.7,2.1-3.3,5-3.3
		c2.9,0,4.6,2.5,5,3.3v5.5l-1.9,3.8c-0.1,0.1-0.1,0.3-0.1,0.4v2c0,0.6,0.4,1,1,1c0.6,0,1-0.4,1-1V32.6z"/>
</g>
</svg>
